OpenSim_Sub04_CSBaseline_GRF.mot
version=1
nRows=22
nColumns=19
inDegrees=no
endheader
time	lFx	lFy	lFz	lCOPx	lCOPy	lCOPz	rFx	rFy	rFz	rCOPx	rCOPy	rCOPz	lMx	lMy	lMz	rMx	rMy	rMz
0	9.07044572	342.65224552	25.38944139	0.80968439	0	-0.67379823	1.02724998	351.80994773	-33.19666607	0.79980540	0	-0.36879385	0	-9.43938779	0	0	0.67149190	-0.00000000
0.01000000	8.78887193	342.10289660	25.17048820	0.80947149	0	-0.67412967	1.26801097	352.34170159	-32.97815733	0.80042375	0	-0.36856048	0	-9.43852128	0	0	0.74304388	-0.00000000
0.02000000	8.62723867	341.34122804	25.01672207	0.80930606	0	-0.67430339	1.37300609	353.15904710	-32.91800591	0.80076229	0	-0.36840076	0	-9.41927149	0	0	0.77180710	-0.00000000
0.03000000	8.54090647	340.46954078	24.92166075	0.80917293	0	-0.67436317	1.40045604	354.06377482	-32.98247394	0.80083301	0	-0.36832628	0	-9.38882711	0	0	0.77299193	0
0.04000000	8.44659362	339.55060038	24.87178046	0.80901181	0	-0.67433235	1.40805700	354.86107146	-33.07510571	0.80076928	0	-0.36830179	0	-9.34273307	0	0	0.77306794	-0.00000000
0.05000000	8.23460158	338.65635115	24.86106945	0.80901113	0	-0.67423505	1.41011988	355.50626970	-33.12984464	0.80070309	0	-0.36829572	0	-9.26537185	0	0	0.76797462	-0.00000000
0.06000000	7.83315968	337.82017287	24.85503730	0.80918526	0	-0.67412679	1.37111039	355.96825559	-33.13970242	0.80063201	0	-0.36826798	0	-9.18771645	0	0	0.76000512	-0.00000000
0.07000000	7.24758892	336.98188009	24.79673448	0.80942494	0	-0.67405288	1.24269495	356.24171483	-33.12726610	0.80062566	0	-0.36819635	0	-9.15969633	0	0	0.75290192	0.00000000
0.08000000	6.67096103	335.95537702	24.64196520	0.80944333	0	-0.67405667	0.94331773	356.30529103	-33.10016901	0.80087644	0	-0.36809055	0	-9.22850690	0	0	0.73037682	0.00000000
0.09000000	6.38471495	334.59221644	24.40121986	0.80911412	0	-0.67415913	0.33340516	356.19508667	-33.04470608	0.80139218	0	-0.36800950	0	-9.42062204	0	0	0.69941889	-0.00000000
0.10000000	6.41347179	332.97070624	24.12709295	0.80863225	0	-0.67428969	-0.48561760	356.03296508	-32.92946209	0.80201306	0	-0.36796524	0	-9.69391668	0	0	0.66189104	0.00000000
0.11000000	6.54346176	331.36115510	23.87421877	0.80823502	0	-0.67442762	-1.14410389	355.89328126	-32.80152862	0.80210844	0	-0.36795585	0	-9.97426315	0	0	0.65248419	0.00000000
0.12000000	6.62268462	330.02569845	23.66146727	0.80814674	0	-0.67458202	-1.29183604	355.82091429	-32.71336211	0.80158896	0	-0.36795194	0	-10.24178984	0	0	0.65018040	0.00000000
0.13000000	6.68556392	329.11204785	23.45425534	0.80813260	0	-0.67470366	-1.04082827	355.80956739	-32.71653302	0.80096045	0	-0.36795769	0	-10.49521017	0	0	0.62483354	-0.00000000
0.14000000	6.81696864	328.70094475	23.23321856	0.80797628	0	-0.67478759	-0.67924879	355.75191906	-32.80491612	0.80054064	0	-0.36796725	0	-10.75097464	0	0	0.58671559	0
0.15000000	6.99754116	328.77904125	22.97355612	0.80753596	0	-0.67484342	-0.36267757	355.53306520	-32.91421799	0.80019091	0	-0.36796273	0	-10.99339615	0	0	0.55779217	0.00000000
0.16000000	7.20272257	329.14008171	22.70423752	0.80697200	0	-0.67481677	-0.15811976	355.17057934	-32.98395264	0.79972960	0	-0.36796826	0	-11.22272192	0	0	0.55012150	-0.00000000
0.17000000	7.43030092	329.56940669	22.44278788	0.80655141	0	-0.67475500	-0.05498388	354.77411529	-32.98088966	0.79930789	0	-0.36798945	0	-11.47544418	0	0	0.54638955	0.00000000
0.18000000	7.62430504	329.97922237	22.18479971	0.80638333	0	-0.67471921	-0.04266213	354.54895789	-32.92562348	0.79911521	0	-0.36800851	0	-11.74779779	0	0	0.51851178	-0.00000000
0.19000000	7.70297574	330.36752043	21.93376064	0.80643098	0	-0.67473271	-0.11580146	354.71887811	-32.84360662	0.79914199	0	-0.36797877	0	-12.01894522	0	0	0.47365870	-0.00000000
0.20000000	7.69401057	330.74339106	21.67134293	0.80658827	0	-0.67480816	-0.25112304	355.28167148	-32.79253263	0.79913072	0	-0.36793540	0	-12.29353608	0	0	0.43351467	0
0.21000000	7.66701119	331.09984103	21.39183727	0.80677473	0	-0.67493375	-0.36054648	356.03487350	-32.78577899	0.79879483	0	-0.36791203	0	-12.56342790	0	0	0.41780701	-0.00000000
